<?xml version="1.0" encoding="UTF-8"?>
<svg version="1.1" xmlns="http://www.w3.org/2000/svg" width="1024" height="1024">
<path d="M0 0 C337.92 0 675.84 0 1024 0 C1024 337.92 1024 675.84 1024 1024 C686.08 1024 348.16 1024 0 1024 C0 686.08 0 348.16 0 0 Z " fill="#FEF7E9" transform="translate(0,0)"/>
<path d="M0 0 C0.5451123 0.44214844 1.09022461 0.88429688 1.65185547 1.33984375 C15.56417693 12.65667465 29.04280062 25.31800492 40.0546875 39.50390625 C42.17068812 42.21901548 44.42475613 44.7812116 46.6875 47.375 C77.09492123 83.91104876 97.97634005 131.23686341 106 178 C106.28762207 179.53406494 106.28762207 179.53406494 106.58105469 181.09912109 C111.20144758 206.23240022 110.41306187 231.55079942 110 257 C108.82308594 256.73445313 107.64617188 256.46890625 106.43359375 256.1953125 C104.76838602 255.83781028 103.10301166 255.48108361 101.4375 255.125 C100.67630859 254.95097656 99.91511719 254.77695312 99.13085938 254.59765625 C81.37019748 250.86584402 62.92399201 250.69565696 44.84765625 250.5859375 C42.84027885 250.567151 40.83290872 250.54757259 38.82554626 250.5272522 C33.62926599 250.47671286 28.43296032 250.43667775 23.23657227 250.39910889 C17.89919161 250.35856844 12.56190931 250.30770903 7.22460938 250.2578125 C-3.18352387 250.16198392 -13.5917137 250.07729271 -24 250 C-24.02505615 250.61520508 -24.0501123 251.23041016 -24.07592773 251.86425781 C-24.19218487 254.65970156 -24.31477642 257.45483298 -24.4375 260.25 C-24.49647461 261.70212891 -24.49647461 261.70212891 -24.55664062 263.18359375 C-24.59853516 264.11816406 -24.64042969 265.05273438 -24.68359375 266.015625 C-24.72025146 266.87446289 -24.75690918 267.73330078 -24.79467773 268.61816406 C-24.98703514 270.84960143 -25.38846244 272.84982524 -26 275 C-30.09289985 275.85702451 -34.18632951 276.71145708 -38.28027344 277.56347656 C-39.6733263 277.85377709 -41.06623105 278.14478926 -42.45898438 278.43652344 C-44.45925129 278.85538275 -46.46003437 279.27169198 -48.4609375 279.6875 C-49.66540527 279.93886719 -50.86987305 280.19023438 -52.11083984 280.44921875 C-55 281 -55 281 -57 281 C-56.85709764 277.89567435 -56.71073438 274.79157209 -56.5625 271.6875 C-56.52318359 270.82576172 -56.48386719 269.96402344 -56.44335938 269.07617188 C-56.13440508 262.68319451 -55.58070437 256.3877481 -55 250 C-97.57 250 -140.14 250 -184 250 C-184 283.99 -184 317.98 -184 353 C-177.4 353.33 -170.8 353.66 -164 354 C-162.02 354.33 -160.04 354.66 -158 355 C-161.8130083 360.33821162 -165.94146899 365.31133306 -170.25 370.25 C-170.81420654 370.8987207 -171.37841309 371.54744141 -171.9597168 372.21582031 C-176.38536023 377.30218649 -176.38536023 377.30218649 -178.49023438 379.69189453 C-188.11512193 390.6423855 -194.56254222 400.9244736 -194.24609375 415.890625 C-193.55681844 424.59956385 -190.33783878 436.66216122 -184 443 C-183.90613619 444.8718094 -183.88256196 446.7471806 -183.88647461 448.62133789 C-183.88655014 449.82250748 -183.88662567 451.02367706 -183.88670349 452.26124573 C-183.89186478 453.5685112 -183.89702606 454.87577667 -183.90234375 456.22265625 C-183.90420802 457.56644132 -183.90563188 458.91022707 -183.90663147 460.25401306 C-183.91045598 463.79682277 -183.92028568 467.3395917 -183.93133545 470.88238525 C-183.94155101 474.49515227 -183.9461294 478.10792584 -183.95117188 481.72070312 C-183.96190802 488.8138188 -183.97898364 495.90690674 -184 503 C-170.69038578 499.39165917 -170.69038578 499.39165917 -158.125 493.8125 C-157.46371094 493.47025391 -156.80242187 493.12800781 -156.12109375 492.77539062 C-153.30815257 491.30615664 -150.64239563 489.76159709 -148 488 C-144.76895809 488.04142361 -143.68626127 489.28415765 -141.265625 491.4765625 C-140.25381462 492.51967806 -139.24892631 493.56953965 -138.25 494.625 C-137.16836537 495.73473115 -136.08503687 496.8428139 -135 497.94921875 C-134.47921875 498.48208496 -133.9584375 499.01495117 -133.421875 499.56396484 C-127.33303089 505.71344648 -120.37801402 510.98049708 -113.63378906 516.38256836 C-110.24437724 519.11020284 -106.99359511 521.82894951 -104 525 C-111.36215249 528.65073437 -118.95020601 530.89425005 -126.875 533 C-127.52296539 533.17330841 -128.17093079 533.34661682 -128.83853149 533.525177 C-142.39599835 537.12222512 -156.0624176 539.41236869 -170 541 C-170.82999512 541.1023999 -171.65999023 541.2047998 -172.51513672 541.31030273 C-181.89218639 542.33594593 -191.329212 542.20084599 -200.75 542.1875 C-201.6665033 542.18623108 -202.58300659 542.18496216 -203.52728271 542.18365479 C-275.87201873 541.9925966 -351.20270678 516.92365882 -404.86328125 466.98828125 C-406.76184661 465.22160891 -408.7045279 463.54509377 -410.6875 461.875 C-421.05857449 452.81084953 -430.51729447 442.8381844 -439 432 C-439.91499907 430.89467036 -440.8331579 429.79195129 -441.75390625 428.69140625 C-475.14368062 388.47478784 -497.23131805 336.52010379 -505 285 C-505.14808105 284.07719238 -505.29616211 283.15438477 -505.44873047 282.20361328 C-507.88571121 266.52456709 -508.28833136 250.95872406 -508.3125 235.125 C-508.31608521 234.18430664 -508.31967041 233.24361328 -508.32336426 232.27441406 C-508.35872878 215.02856427 -507.36325882 197.81292447 -504.3125 180.8125 C-504.06367065 179.41294067 -504.06367065 179.41294067 -503.80981445 177.98510742 C-498.94000459 151.92591702 -490.52228887 126.83845368 -479 103 C-478.5659082 102.09910645 -478.13181641 101.19821289 -477.68457031 100.27001953 C-467.81455904 80.03190407 -455.74017613 60.87286948 -441.30224609 43.5625 C-439.97476559 41.96972249 -438.66932021 40.36038198 -437.36328125 38.75 C-425.43754472 24.25954351 -411.98811507 10.32795714 -397 -1 C-395.60974609 -2.11568359 -395.60974609 -2.11568359 -394.19140625 -3.25390625 C-379.47591286 -14.93257171 -363.62805292 -25.26235614 -347 -34 C-346.06075684 -34.49741699 -346.06075684 -34.49741699 -345.10253906 -35.00488281 C-311.89051856 -52.46967803 -276.32008119 -63.8082264 -239 -68 C-237.67814697 -68.1544458 -237.67814697 -68.1544458 -236.32958984 -68.31201172 C-152.64683987 -77.80675643 -65.21997998 -53.75336184 0 0 Z " fill="#F1861B" transform="translate(650,250)"/>
<path d="M0 0 C5.33739473 1.98844117 8.45333824 4.90667648 11 10 C11.23828125 11.953125 11.23828125 11.953125 11.3125 14.25 C11.34988281 14.99765625 11.38726563 15.7453125 11.42578125 16.515625 C10.24030953 23.43268933 3.71380902 28.54747213 -1.046875 33.2421875 C-2.20367767 34.39474533 -2.20367767 34.39474533 -3.3838501 35.57058716 C-5.83455682 38.01014894 -8.29214497 40.44264239 -10.75 42.875 C-12.41842869 44.53339157 -14.08640255 46.19224086 -15.75390625 47.8515625 C-19.8306855 51.90635683 -23.91312879 55.95537902 -28 60 C-26.36162431 63.49956684 -24.62809438 65.45886443 -21.6875 68 C-20.32044922 69.20462891 -20.32044922 69.20462891 -18.92578125 70.43359375 C-17.96027344 71.28050781 -16.99476563 72.12742187 -16 73 C-7.86971006 80.23865641 -0.07127193 87.80259422 7.64959717 95.47335815 C8.70008351 96.51645291 9.75215815 97.55795103 10.80596924 98.59768677 C16.94920575 104.66647245 22.69856423 110.84680852 28.09228516 117.60864258 C29.61663319 119.5194423 31.1662057 121.37714151 32.78515625 123.20703125 C48.133807 140.76715141 48.133807 140.76715141 48.26953125 150.1875 C47.5648736 160.15483134 42.02942366 166.40885677 36 174 C35.03707031 175.2375 35.03707031 175.2375 34.0546875 176.5 C28.70542197 183.3040867 23.06681306 189.86447296 17.39160156 196.39697266 C16.22252567 197.74366604 15.05973432 199.09581149 13.8984375 200.44921875 C2.69118288 213.24156317 -9.44587114 225.70050998 -23 236 C-23.95132812 236.76828125 -24.90265625 237.5365625 -25.8828125 238.328125 C-66.23886982 270.49159926 -117.3724541 290.31479955 -169.0625 290.375 C-169.78313629 290.37708466 -170.50377258 290.37916931 -171.24624634 290.38131714 C-185.01978466 290.37679071 -198.76322001 289.21334578 -212.25 286.3125 C-213.01449463 286.15241455 -213.77898926 285.9923291 -214.56665039 285.82739258 C-221.9455393 284.18706089 -229.05197213 281.78802013 -236.14746094 279.19848633 C-237.40284668 278.75025513 -237.40284668 278.75025513 -238.68359375 278.29296875 C-239.42150146 278.0199292 -240.15940918 277.74688965 -240.91967773 277.46557617 C-243.44813016 276.89970846 -244.56527076 277.11199073 -247 278 C-249.18025168 279.75909435 -249.18025168 279.75909435 -251.33789062 282.02905273 C-252.60940979 283.31059486 -252.60940979 283.31059486 -253.90661621 284.61802673 C-255.26768494 286.01173241 -255.26768494 286.01173241 -256.65625 287.43359375 C-257.6042161 288.39224065 -258.55299985 289.35007964 -259.50256348 290.30714417 C-261.99961727 292.82697118 -264.48840194 295.3547891 -266.97467041 297.88525391 C-270.95251391 301.93329183 -274.93778366 305.97388998 -278.93241882 310.00535774 C-280.32389124 311.41349712 -281.70869126 312.82821983 -283.09338379 314.24302673 C-283.94106323 315.10054031 -284.78874268 315.95805389 -285.66210938 316.84155273 C-286.77652405 317.97620216 -286.77652405 317.97620216 -287.91345215 319.1337738 C-292.25186037 323.01408312 -295.85498276 323.44171614 -301.52734375 323.31640625 C-306.24067598 322.71327843 -308.87910876 320.30770645 -311.875 316.8125 C-313.44311288 312.89221781 -313.72743104 309.16489929 -313 305 C-310.97193389 301.17384333 -308.56746052 298.32165874 -305.50790405 295.27412415 C-304.58808243 294.35299835 -303.6682608 293.43187256 -302.7205658 292.48283386 C-301.7036105 291.47455035 -300.68656336 290.46635946 -299.66943359 289.45825195 C-298.5962985 288.38731936 -297.52361189 287.31593722 -296.45133972 286.24414062 C-294.14613756 283.94186667 -291.83782043 281.64277893 -289.5270195 279.34612465 C-285.87530826 275.71670185 -282.23071889 272.08018351 -278.58706665 268.44267273 C-272.82642555 262.69340288 -267.06112847 256.94882821 -261.29378188 251.20628566 C-250.95593757 240.91281948 -240.6237215 230.61371105 -230.2966696 220.30941743 C-226.67089657 216.69206607 -223.04233432 213.07754239 -219.41152549 209.46524584 C-217.15817126 207.22250932 -214.90682619 204.97776403 -212.65598488 202.7325058 C-211.60912631 201.68912717 -210.56139663 200.64662175 -209.51275063 199.6050396 C-208.0855975 198.18729195 -206.66176648 196.76620245 -205.23812866 195.34492493 C-204.03965081 194.15172622 -204.03965081 194.15172622 -202.81696129 192.93442249 C-200.94266537 191.12398307 -200.94266537 191.12398307 -200 189 C-199.34 189 -198.68 189 -198 189 C-197.73590332 188.41065674 -197.47180664 187.82131348 -197.19970703 187.21411133 C-195.95422948 184.91552851 -194.65447786 183.41060483 -192.8046875 181.57421875 C-192.17046875 180.94193359 -191.53625 180.30964844 -190.8828125 179.65820312 C-190.22023438 179.00787109 -189.55765625 178.35753906 -188.875 177.6875 C-187.9159375 176.7294043 -187.9159375 176.7294043 -186.9375 175.75195312 C-181.91773981 170.77755221 -181.91773981 170.77755221 -179.50121021 168.73015499 C-172.48851989 162.77871086 -166.08368307 156.21642207 -159.5949707 149.70849609 C-158.25238174 148.36562466 -156.90957175 147.02297418 -155.56655884 145.68052673 C-151.93853748 142.05279114 -148.31359849 138.42198987 -144.68922067 134.7906146 C-140.88838013 130.98349762 -137.0846834 127.1792364 -133.28129578 123.37466431 C-126.08190244 116.17216794 -118.8850601 108.9671282 -111.68914145 101.76116049 C-103.5139801 93.57482872 -95.33598699 85.39132834 -87.15774786 77.20807147 C-73.17877639 63.22042453 -59.20191837 49.2306687 -45.22743225 35.23854065 C-44.63745537 34.64782418 -44.0474785 34.05710771 -43.43962353 33.44849074 C-42.35767427 32.36517358 -41.27574044 31.28184102 -40.1938265 30.19848859 C-37.89366478 27.89538543 -35.59276545 25.59303248 -33.29037762 23.29215431 C-31.72318172 21.72374271 -30.161806 20.14949972 -28.60546875 18.5703125 C-9.11604763 -1.13950595 -9.11604763 -1.13950595 0 0 Z " fill="#F1861A" transform="translate(860,515)"/>
<path d="M0 0 C0 4 0 4 -1.13891602 5.61993408 C-1.67186279 6.14399841 -2.20480957 6.66806274 -2.75390625 7.20800781 C-3.35452881 7.80832825 -3.95515137 8.40864868 -4.57397461 9.02716064 C-5.23018799 9.66272888 -5.88640137 10.29829712 -6.5625 10.953125 C-7.56132202 11.94345734 -7.56132202 11.94345734 -8.58032227 12.95379639 C-10.71102148 15.06209018 -12.85520053 17.15606155 -15 19.25 C-16.44622154 20.67616209 -17.89154584 22.10323466 -19.3359375 23.53125 C-22.88029686 27.03148655 -26.43680926 30.51893954 -30 34 C-34.00163733 32.46378855 -37.33920401 30.59138806 -40.9375 28.25 C-58.1741534 17.38389877 -75.80108382 13.75982759 -95.9375 13.6875 C-96.63152924 13.68488159 -97.32555847 13.68226318 -98.0406189 13.67956543 C-108.55772275 13.67530731 -118.03402961 14.37026205 -128 18 C-128.87140625 18.27714844 -129.7428125 18.55429687 -130.640625 18.83984375 C-156.22836925 27.79555424 -176.59871107 49.2295809 -188.31958008 73.04638672 C-194.65990192 86.4704788 -197.3920295 100.33712333 -197.3125 115.125 C-197.30758545 116.2166748 -197.3026709 117.30834961 -197.29760742 118.43310547 C-197.0021282 139.01967315 -191.90032399 160.60472908 -179.2578125 177.30078125 C-178 179 -178 179 -178 181 C-179.23144531 182.19921875 -179.23144531 182.19921875 -181.078125 183.6875 C-185.2878071 187.26294806 -189.1343955 191.11058929 -192.984375 195.0625 C-193.92464539 196.02192505 -193.92464539 196.02192505 -194.88391113 197.00073242 C-197.51272019 199.68317708 -200.13938339 202.36729313 -202.74755859 205.06982422 C-204.66940203 207.0579218 -206.60649617 209.03001201 -208.546875 211 C-209.13547302 211.6175415 -209.72407104 212.23508301 -210.33050537 212.87133789 C-212.01074219 214.5625 -212.01074219 214.5625 -215 217 C-218.30970311 216.5634693 -220.38966075 215.2233963 -223.0546875 213.26171875 C-223.8273999 212.69493408 -224.6001123 212.12814941 -225.39624023 211.54418945 C-226.62322632 210.62512817 -226.62322632 210.62512817 -227.875 209.6875 C-228.72199463 209.05739014 -229.56898926 208.42728027 -230.44165039 207.77807617 C-237.91546213 202.16442568 -245.04236028 196.23706556 -252 190 C-252.50547363 189.55092285 -253.01094727 189.1018457 -253.53173828 188.63916016 C-264.6656152 178.72751461 -275.59714814 168.42907456 -284.8515625 156.71484375 C-286.7957437 154.25810569 -288.79605735 151.86000089 -290.82446289 149.47265625 C-295.56996836 143.87105339 -300.05579649 138.19660399 -304 132 C-304.50789063 131.21238281 -305.01578125 130.42476562 -305.5390625 129.61328125 C-309.41311099 122.89321391 -310.24632444 116.65466427 -309 109 C-305.66756617 98.81434355 -297.08491917 90.7625325 -290 83 C-289.52949219 82.48373047 -289.05898438 81.96746094 -288.57421875 81.43554688 C-286.49468283 79.15664542 -284.4113334 76.88133877 -282.32421875 74.609375 C-279.9755918 71.97259718 -277.76479449 69.25968937 -275.5625 66.5 C-269.18653972 58.61453675 -261.97693101 51.48644032 -254.25390625 44.91796875 C-252.49397236 43.42034737 -250.75615686 41.89672258 -249.02734375 40.36328125 C-222.24260085 16.71296516 -191.05542997 -1.19568268 -157 -12 C-156.26491211 -12.23702637 -155.52982422 -12.47405273 -154.77246094 -12.71826172 C-102.45417396 -29.32404334 -49.84387938 -19.78339542 0 0 Z " fill="#F1861B" transform="translate(786,549)"/>
<path d="M0 0 C11.79507694 0.66598138 23.46730966 2.05868209 35.1875 3.5 C37.97594337 3.84094716 40.76450493 4.18085356 43.55329895 4.5189209 C45.2721781 4.7274777 46.99085629 4.9377014 48.70927429 5.15002441 C69.13142989 7.63712012 89.31504344 8.037909 110 9 C110 43.65 110 78.3 110 114 C67.76 114 25.52 114 -18 114 C-18 102.14102994 -17.74320325 91.02970506 -16.25 79.375 C-16.0653889 77.88592009 -15.88090207 76.39682477 -15.6965332 74.90771484 C-12.49811797 49.42100796 -7.62171501 24.57160288 0 0 Z " fill="#FEF6E8" transform="translate(327,355)"/>
<path d="M0 0 C9.37160787 33.41789866 9.37160787 33.41789866 12 46 C12.15919922 46.74475586 12.31839844 47.48951172 12.48242188 48.25683594 C15.15168426 60.97478063 16.79612292 73.7848312 18.25 86.6875 C18.33894531 87.46412994 18.42789063 88.24075989 18.51953125 89.04092407 C18.7758502 91.3012591 19.02249635 93.56243034 19.265625 95.82421875 C19.47880371 97.79007935 19.47880371 97.79007935 19.69628906 99.7956543 C20.0615178 104.85160613 20 109.93087375 20 115 C-22.57 115 -65.14 115 -109 115 C-109 80.68 -109 46.36 -109 11 C-104.17979377 10.31139911 -99.71653874 9.8177703 -94.890625 9.60546875 C-93.49996462 9.53931385 -92.10934093 9.47238415 -90.71875 9.40478516 C-89.99171875 9.36992004 -89.2646875 9.33505493 -88.515625 9.2991333 C-63.25928532 8.05468704 -38.23238558 5.15592055 -13.2578125 1.21923828 C-12.236875 1.0592334 -11.2159375 0.89922852 -10.1640625 0.734375 C-9.28186035 0.59225586 -8.3996582 0.45013672 -7.49072266 0.30371094 C-4.96785237 -0.00391998 -2.53887045 -0.05352183 0 0 Z " fill="#FEF6E8" transform="translate(575,354)"/>
<path d="M0 0 C42.24 0 84.48 0 128 0 C128 34.32 128 68.64 128 104 C116.78 104.33 105.56 104.66 94 105 C76.16378876 106.53508375 58.47890539 108.64362763 40.75390625 111.08203125 C32.84818101 112.16778184 24.9306928 113.11622778 17 114 C8.74516791 85.5471745 3.68956596 56.89545076 0.6875 27.4375 C0.61120361 26.72198975 0.53490723 26.00647949 0.45629883 25.26928711 C-0.30857722 16.82494042 0 8.54386771 0 0 Z " fill="#FEF6E9" transform="translate(309,500)"/>
<path d="M0 0 C33.66 0 67.32 0 102 0 C102.7425 7.8375 103.485 15.675 104.25 23.75 C107.4511614 56.47138306 112.63879296 87.96319755 120 120 C110.70306956 123.13618824 110.70306956 123.13618824 106.07421875 124.4375 C94.85651153 127.67343732 83.92187003 131.41252824 73.0625 135.6875 C71.88453857 136.15091797 70.70657715 136.61433594 69.49291992 137.09179688 C64.67420645 139.01831208 59.95699873 140.96006427 55.37109375 143.39453125 C52 145 52 145 49 144 C47.21421601 141.59582797 45.59229686 139.21596293 44 136.6875 C43.51942139 135.93130371 43.03884277 135.17510742 42.54370117 134.39599609 C21.88460521 101.46646588 9.07664599 65.44195566 2.75 27.125 C2.58653076 26.13935059 2.42306152 25.15370117 2.25463867 24.13818359 C0.99492938 16.03976453 0.55114709 8.26720629 0 0 Z " fill="#FEF6E9" transform="translate(175,500)"/>
<path d="M0 0 C4.93982348 0.59107774 9.10525268 2.17936244 13.6171875 4.16796875 C23.24542637 8.26665186 33.10991001 11.31579133 43.125 14.3125 C44.86741674 14.84104174 46.60960537 15.37033609 48.3515625 15.90039062 C55.22013287 17.98527743 62.09376087 20.04313736 69 22 C68.08554684 27.95076981 66.83514175 33.77748263 65.32495117 39.60180664 C60.28527586 59.05599562 56.89273927 78.6499212 54.3125 98.5625 C54.2098584 99.34428619 54.1072168 100.12607239 54.00146484 100.93154907 C52.17945795 114.93859499 51.12845832 128.89427099 50 143 C16.34 143 -17.32 143 -52 143 C-50.82187912 125.32818684 -50.82187912 125.32818684 -49.3125 116.5625 C-49.13952393 115.54953857 -48.96654785 114.53657715 -48.78833008 113.49291992 C-41.56646981 72.80757672 -26.3401911 32.34760311 0 0 Z " fill="#FEF6E9" transform="translate(227,326)"/>
<path d="M0 0 C1.99971235 1.63894382 3.29954257 3.23298125 4.74584961 5.37939453 C5.57403198 6.60541382 5.57403198 6.60541382 6.41894531 7.85620117 C7.00248779 8.74815186 7.58603027 9.64010254 8.18725586 10.55908203 C9.10607544 11.95404907 9.10607544 11.95404907 10.04345703 13.37719727 C34.50943421 51.14884646 52.74975586 96.75074047 52.74975586 142.43408203 C19.08975586 142.43408203 -14.57024414 142.43408203 -49.25024414 142.43408203 C-50.57024414 127.91408203 -51.89024414 113.39408203 -53.25024414 98.43408203 C-56.16582088 78.62141279 -59.65540733 59.38274275 -64.62231445 40.03686523 C-66.21297778 33.82896859 -67.69065545 27.82474713 -68.25024414 21.43408203 C-67.00758789 21.06798828 -65.76493164 20.70189453 -64.48461914 20.32470703 C-51.66263158 16.50425832 -38.94455403 12.40611784 -26.25024414 8.18408203 C-25.45984741 7.92228149 -24.66945068 7.66048096 -23.85510254 7.39074707 C-21.56896373 6.63265599 -19.28436905 5.87009191 -17.00024414 5.10595703 C-16.32181458 4.88113647 -15.64338501 4.65631592 -14.94439697 4.42468262 C-11.69328512 3.33054967 -8.59902614 2.13226874 -5.51586914 0.64208984 C-2.25024414 -0.56591797 -2.25024414 -0.56591797 0 0 Z " fill="#FEF6E9" transform="translate(675.250244140625,326.56591796875)"/>
<path d="M0 0 C0 38.94 0 77.88 0 118 C-19.79206984 112.17880299 -19.79206984 112.17880299 -25.875 108.75 C-26.57351074 108.3686792 -27.27202148 107.9873584 -27.99169922 107.59448242 C-34.27330088 104.05827526 -39.63410233 99.81648835 -45 95 C-46.2490723 93.97803176 -47.49896563 92.95706545 -48.75 91.9375 C-71.79836497 71.91513024 -89.49026614 39.32501442 -100 11 C-100 10.34 -100 9.68 -100 9 C-82.92538606 5.84466505 -65.82537434 3.27041906 -48.54592896 1.51611328 C-46.67932485 1.32449291 -44.81408489 1.11971482 -42.94897461 0.9140625 C-28.52776839 -0.48017796 -14.69995001 0 0 0 Z " fill="#FEF6E9" transform="translate(437,636)"/>
<path d="M0 0 C0 37.29 0 74.58 0 113 C-10.11798805 113 -20.10271774 112.75429462 -30.1875 112.1875 C-30.97246857 112.14398407 -31.75743713 112.10046814 -32.56619263 112.05563354 C-46.78628464 111.25363699 -60.88302417 109.90883328 -75 108 C-76.53551514 107.79624756 -76.53551514 107.79624756 -78.10205078 107.58837891 C-81.06923067 107.19209836 -84.03496272 106.78698789 -87 106.375 C-87.88550537 106.2519751 -88.77101074 106.1289502 -89.68334961 106.00219727 C-95.75499129 105.12250436 -95.75499129 105.12250436 -98 104 C-95.46450133 95.12575464 -91.28143441 87.12983017 -87 79 C-86.65163086 78.33516602 -86.30326172 77.67033203 -85.94433594 76.98535156 C-70.67217281 48.10941288 -37.42652448 0 0 0 Z " fill="#FEF6E9" transform="translate(437,219)"/>
<path d="M0 0 C20.06118767 3.34353128 35.50063017 15.51937674 50 29 C50.96679688 29.86818359 50.96679688 29.86818359 51.953125 30.75390625 C69.9518816 47.65609994 93.10705733 79.49915625 97 104 C73.64485698 109.20233044 49.79601532 110.98166286 25.99041748 112.84387207 C24.05346078 112.99580655 22.11681245 113.15165642 20.18017578 113.30761719 C18.98763184 113.39946289 17.79508789 113.49130859 16.56640625 113.5859375 C15.53588135 113.66634277 14.50535645 113.74674805 13.44360352 113.82958984 C8.96751965 114.05109332 4.48156118 114 0 114 C0 76.38 0 38.76 0 0 Z " fill="#FEF6E9" transform="translate(466,219)"/>
<path d="M0 0 C2.4704586 3.18152251 4.03415811 6.10703462 5.5 9.875 C6.10328125 11.38707031 6.10328125 11.38707031 6.71875 12.9296875 C10.34555476 23.65166314 11.48363444 34.23823019 11.375 45.5 C11.38660156 46.70269531 11.39820313 47.90539062 11.41015625 49.14453125 C11.32399894 75.8820157 -0.32980198 101.0525171 -18.87890625 120.00390625 C-41.0498512 141.69933495 -69.04197897 149.52041177 -99.453125 149.2109375 C-111.69156662 148.92754305 -129.84328828 147.15671172 -139 138 C-135.65868866 134.38565579 -132.28193195 130.80990731 -128.86816406 127.26391602 C-127.71365341 126.05426697 -126.5692279 124.8349049 -125.43554688 123.60571289 C-116.03810593 113.43751692 -116.03810593 113.43751692 -111.35693359 112.43261719 C-108.79257752 112.71158479 -106.48437883 113.31493144 -104 114 C-102.11529046 114.1442227 -100.22572791 114.23315806 -98.3359375 114.2734375 C-97.36688477 114.29656006 -96.39783203 114.31968262 -95.39941406 114.34350586 C-75.29460305 114.55286335 -59.36646422 109.52442034 -44.3034668 95.53613281 C-30.83027705 82.25691419 -24.07405053 64.30024544 -23.75 45.5625 C-23.71152604 40.35520531 -23.71152604 40.35520531 -24.91552734 35.33837891 C-25.96564311 31.91261 -26.40174573 29.57911641 -26 26 C-22.8964973 20.53695383 -17.72701151 16.41724037 -13.125 12.25 C-11.86012633 11.05541508 -10.59836718 9.85752321 -9.33984375 8.65625 C-6.2612729 5.73134685 -3.14360699 2.85482419 0 0 Z " fill="#FEF6E8" transform="translate(785,621)"/>
<path d="M0 0 C0 4 0 4 -1.46244621 5.96022415 C-2.1530369 6.6497253 -2.84362759 7.33922646 -3.55514526 8.04962158 C-4.34318542 8.84605072 -5.13122559 9.64247986 -5.94314575 10.46304321 C-6.81897308 11.32763153 -7.69480042 12.19221985 -8.59716797 13.08300781 C-9.96760254 14.45913742 -9.96760254 14.45913742 -11.36572266 15.86306763 C-13.8732032 18.38025021 -16.39301824 20.88474353 -18.91547155 23.38691044 C-21.55031486 26.00420492 -24.17462687 28.63201938 -26.80032349 31.25848389 C-31.210516 35.66680282 -35.62838966 40.06730302 -40.05126953 44.46289062 C-45.17029089 49.55044112 -50.27876386 54.64838939 -55.38133895 59.75243115 C-60.28440876 64.65672009 -65.19316178 69.55527657 -70.10513687 74.45064545 C-72.19837374 76.53680752 -74.289891 78.62467179 -76.38012314 80.7138443 C-79.29545489 83.62680073 -82.21920731 86.53115673 -85.14404297 89.43457031 C-86.45171127 90.74359818 -86.45171127 90.74359818 -87.78579712 92.07907104 C-88.57947693 92.86422089 -89.37315674 93.64937073 -90.19088745 94.45831299 C-90.88223219 95.14630604 -91.57357693 95.83429909 -92.28587151 96.54314041 C-94 98 -94 98 -96 98 C-105.56593893 79.0515785 -109.85795197 59.40015406 -103.37890625 38.5859375 C-98.69736942 26.41128932 -92.32408961 17.07727547 -83 8 C-82.3090625 7.31164062 -81.618125 6.62328125 -80.90625 5.9140625 C-58.65913222 -14.96540459 -25.08962119 -15.08394059 0 0 Z " fill="#F1851A" transform="translate(728,606)"/>
<path d="M0 0 C2.58890002 3.16045058 4.17100216 6.35672501 5.78515625 10.1015625 C6.31020752 11.30466064 6.83525879 12.50775879 7.3762207 13.74731445 C7.7881517 14.69654282 7.7881517 14.69654282 8.20840454 15.66494751 C19.03463193 40.50991505 32.38344515 64.15111458 49.90209961 84.97949219 C53 88.70638034 53 88.70638034 53 92 C15.98231304 78.69758559 -18.64759654 60.93981973 -46 32 C-46.886875 31.13375 -47.77375 30.2675 -48.6875 29.375 C-51.61029932 26.37320611 -54.30292779 23.20363702 -57 20 C-49.93126834 16.26430953 -42.77892019 13.24117805 -35.25 10.5625 C-34.17758057 10.17779541 -33.10516113 9.79309082 -32.00024414 9.39672852 C-21.48479983 5.69543421 -10.80694089 2.71677422 0 0 Z " fill="#FEF6E8" transform="translate(304,651)"/>
<path d="M0 0 C-0.43932861 0.42120117 -0.87865723 0.84240234 -1.33129883 1.27636719 C-5.50908271 5.3557113 -9.21677596 9.55836114 -12.6875 14.25 C-13.19877441 14.94053467 -13.71004883 15.63106934 -14.23681641 16.3425293 C-30.14185454 38.12615131 -42.5516296 62.17700821 -53 87 C-61.08547765 86.36441477 -68.73446095 84.02758636 -76.5 81.8125 C-77.21254944 81.61091278 -77.92509888 81.40932556 -78.65924072 81.20162964 C-106.76821928 73.23178072 -106.76821928 73.23178072 -111 69 C-102.70635627 60.48743775 -94.42808259 52.27115435 -85 45 C-84.03191406 44.2265625 -83.06382812 43.453125 -82.06640625 42.65625 C-60.19990902 25.4032834 -35.82518243 10.88615329 -9.5625 1.4375 C-8.83409912 1.17356445 -8.10569824 0.90962891 -7.35522461 0.63769531 C-2.25045318 -1.12522659 -2.25045318 -1.12522659 0 0 Z " fill="#FEF6E9" transform="translate(360,230)"/>
<path d="M0 0 C15.07447476 3.88899226 29.29177008 10.7427018 43 18 C43.6585498 18.34788574 44.31709961 18.69577148 44.99560547 19.05419922 C69.92110411 32.3473929 91.28543931 49.89289275 111 70 C99.49213128 77.67191248 84.17517452 80.45836427 70.9375 83.9375 C69.78059158 84.24205612 69.78059158 84.24205612 68.60031128 84.55276489 C66.38964622 85.13220826 64.17771635 85.70639364 61.96484375 86.27734375 C60.95508484 86.5393306 60.95508484 86.5393306 59.92492676 86.80661011 C55.23847483 88 55.23847483 88 53 88 C52.69316284 87.2421521 52.69316284 87.2421521 52.38012695 86.46899414 C39.76418768 55.5766928 23.99155853 27.39231168 1.43359375 2.6796875 C0 1 0 1 0 0 Z " fill="#FEF6E9" transform="translate(542,229)"/>
<path d="M0 0 C0.99 0.66 1.98 1.32 3 2 C3.36914349 4.02647591 3.36914349 4.02647591 3.36076355 6.56838989 C3.36488754 7.53035278 3.36901154 8.49231567 3.3732605 9.48342896 C3.36247467 10.5422226 3.35168884 11.60101624 3.34057617 12.69189453 C3.34123329 14.36019318 3.34123329 14.36019318 3.34190369 16.06219482 C3.33980722 19.75257693 3.31643527 23.44250939 3.29296875 27.1328125 C3.28737586 29.6858597 3.28310432 32.23891011 3.28010559 34.79196167 C3.26980646 40.83394977 3.24614246 46.87574371 3.21605712 52.91765392 C3.18255144 59.79541833 3.16603678 66.67319041 3.15097082 73.55101609 C3.11959381 87.7007674 3.06680943 101.85037482 3 116 C-0.22305393 116.87089614 -2.85694483 117.05399707 -6.203125 116.87890625 C-7.1828125 116.83056641 -8.1625 116.78222656 -9.171875 116.73242188 C-10.18765625 116.67634766 -11.2034375 116.62027344 -12.25 116.5625 C-13.28125 116.51029297 -14.3125 116.45808594 -15.375 116.40429688 C-17.91699039 116.27484366 -20.45856593 116.13988672 -23 116 C-23 115.67 -23 115.34 -23 115 C-15.08 115 -7.16 115 1 115 C1 77.71 1 40.42 1 2 C-0.32 1.67 -1.64 1.34 -3 1 C-2.01 0.67 -1.02 0.34 0 0 Z " fill="#F07809" transform="translate(436,217)"/>
<path d="M0 0 C0.33 0 0.66 0 1 0 C1 5.61 1 11.22 1 17 C-32 17 -65 17 -99 17 C-98.67 16.34 -98.34 15.68 -98 15 C-65.99 15 -33.98 15 -1 15 C-0.67 10.05 -0.34 5.1 0 0 Z " fill="#FEFDF9" transform="translate(276,452)"/>
<path d="M0 0 C10.23 0 20.46 0 31 0 C31 34.65 31 69.3 31 105 C27.37 105 23.74 105 20 105 C20.33 104.34 20.66 103.68 21 103 C23.64 103 26.28 103 29 103 C28.99777939 102.11813019 28.99555878 101.23626038 28.99327087 100.32766724 C28.97297203 91.88870145 28.9578785 83.44974423 28.94818783 75.01075935 C28.94303784 70.67545631 28.93608975 66.34017395 28.92456055 62.00488281 C28.87265948 41.97619147 28.97112456 22.00800531 30 2 C29.19302673 2.00253784 28.38605347 2.00507568 27.55462646 2.00769043 C25.95315765 2.01065125 25.95315765 2.01065125 24.31933594 2.01367188 C22.73762604 2.01747864 22.73762604 2.01747864 21.1239624 2.0213623 C16.82163248 1.99194208 12.54287202 1.7701297 8.25 1.5 C7.445625 1.45230469 6.64125 1.40460938 5.8125 1.35546875 C3.87480988 1.24013005 1.93737304 1.12054766 0 1 C0 0.67 0 0.34 0 0 Z " fill="#FDFDFB" transform="translate(406,364)"/>
<path d="M0 0 C0.66 0.66 1.32 1.32 2 2 C1.67 2.99 1.34 3.98 1 5 C1 4.34 1 3.68 1 3 C-4.18856909 7.31074471 -9.0378423 11.92885792 -13.8125 16.6875 C-14.37541748 17.24590576 -14.93833496 17.80431152 -15.51831055 18.37963867 C-19.3948338 22.27012928 -22.66641097 25.97380825 -25 31 C-25.84936523 28.88598633 -25.84936523 28.88598633 -26 26 C-24.20556626 23.66787212 -22.52622364 21.82609882 -20.41015625 19.82421875 C-19.83164413 19.25419632 -19.25313202 18.68417389 -18.65708923 18.09687805 C-16.80582239 16.27920227 -14.93480048 14.48347801 -13.0625 12.6875 C-11.80398035 11.45907222 -10.54680084 10.22926985 -9.29101562 8.99804688 C-6.2093353 5.98252653 -3.10977197 2.98653134 0 0 Z " fill="#FDFBF4" transform="translate(785,621)"/>
<path d="M0 0 C0.33 0.66 0.66 1.32 1 2 C-0.375 4 -0.375 4 -2 6 C-2.66 6 -3.32 6 -4 6 C-4.2475 6.639375 -4.495 7.27875 -4.75 7.9375 C-6 10 -6 10 -8.078125 10.62890625 C-9.02945313 10.81259766 -9.02945313 10.81259766 -10 11 C-6.79239749 7.19364503 -3.59253891 3.45436433 0 0 Z " fill="#F0760D" transform="translate(702,663)"/>
<path d="M0 0 C0 3.49889647 -0.54120332 4.0553603 -2.75 6.625 C-3.26046875 7.23601563 -3.7709375 7.84703125 -4.296875 8.4765625 C-6.19607419 10.17538747 -7.51275949 10.5998787 -10 11 C-6.79239749 7.19364503 -3.59253891 3.45436433 0 0 Z " fill="#FDF0E0" transform="translate(858,548)"/>
<path d="M0 0 C0.33 0 0.66 0 1 0 C1.33 4.62 1.66 9.24 2 14 C1.01 14.495 1.01 14.495 0 15 C-1.0024305 9.65370398 -0.84888195 5.37625234 0 0 Z " fill="#FDF0DF" transform="translate(279,533)"/>
<path d="M0 0 C0.33 0.99 0.66 1.98 1 3 C-1.64 5.31 -4.28 7.62 -7 10 C-7.66 9.67 -8.32 9.34 -9 9 C-6.03 6.03 -3.06 3.06 0 0 Z " fill="#FDECD9" transform="translate(606,730)"/>
<path d="M0 0 C-5.29230769 3.07692308 -5.29230769 3.07692308 -8.875 2.6875 C-9.57625 2.460625 -10.2775 2.23375 -11 2 C-8.0843098 -0.9156902 -3.79153866 -1.89576933 0 0 Z " fill="#F07A14" transform="translate(722,730)"/>
<path d="M0 0 C0.8125 1.6875 0.8125 1.6875 1 4 C-1.4375 6.75 -1.4375 6.75 -4 9 C-4 5.00095031 -2.27413033 3.19799578 0 0 Z " fill="#EF7B14" transform="translate(781,721)"/>
<path d="M0 0 C3.3 0 6.6 0 10 0 C10 0.99 10 1.98 10 3 C6.7 2.34 3.4 1.68 0 1 C0 0.67 0 0.34 0 0 Z " fill="#FCECD8" transform="translate(660,765)"/>
<path d="M0 0 C0.66 0.33 1.32 0.66 2 1 C-1.96 4.465 -1.96 4.465 -6 8 C-6.66 7.67 -7.32 7.34 -8 7 C-5.36 4.69 -2.72 2.38 0 0 Z " fill="#F0770F" transform="translate(252,250)"/>
<path d="M0 0 C0.33 0.99 0.66 1.98 1 3 C-1 5 -3 7 -5 9 C-4.5206753 4.68607774 -3.2542015 2.83430453 0 0 Z " fill="#EF760E" transform="translate(553,812)"/>
</svg>
